# xmcd CD database file
#
# Track frame offsets:
#	150
#	19073
#	35898
#	60140
#	74953
#	100048
#	123996
#	151796
#	180899
#	195605
#	213405
#	233670
#	259528
#
# Disc length: 3673 seconds
#
# Revision: 0
# Processed by: cddbd v1.5.2PL0 Copyright (c) Steve Scherf et al.
# Submitted via: CDex 1.82
#
DISCID=a60e570d
DTITLE=GoGo Penguin - V2.0 (Special Edition)
DYEAR=2013
DGENRE=Jazz
TTITLE0=Murmuration
TTITLE1=Garden Dog Barbecue
TTITLE2=Kamaloka
TTITLE3=Fort
TTITLE4=One Percent
TTITLE5=Home
TTITLE6=The Letter
TTITLE7=To Drown In You
TTITLE8=Shock And Awe
TTITLE9=Hopopono
TTITLE10=Break
TTITLE11=In Amber
TTITLE12=Wash
EXTD=YEAR: 2013
EXTT0=
EXTT1=
EXTT2=
EXTT3=
EXTT4=
EXTT5=
EXTT6=
EXTT7=
EXTT8=
EXTT9=
EXTT10=
EXTT11=
EXTT12=
PLAYORDER=
